<svg xmlns="http://www.w3.org/2000/svg" xmlns:xlink="http://www.w3.org/1999/xlink" t="1586684930929" class="icon" viewBox="0 0 1034 1024" version="1.1" p-id="2222" width="128" height="128"><defs><style type="text/css"/></defs><path d="M3.765333 14.972911h1009.027089v1009.027089H3.765333z" fill="#ff0000" p-id="2249" opacity="0"/><path d="M246.257666 771.743228c-41.044279-41.044279-107.598024-41.044279-148.642303 0l-45.805625 45.805625C10.765459 858.582622 10.765459 925.136367 51.809738 966.191156c41.044279 41.044279 107.598024 41.044279 148.642303 0l45.805625-45.805625c41.044279-41.044279 41.044279-107.598024 0-148.642303" fill="#ba68c8" p-id="2250"/><path d="M126.130889 1018.008902a125.28753 125.28753 0 0 1-89.183279-36.955617c-49.17956-49.17956-49.17956-129.19751 0-178.377071l45.805625-45.795114c49.169049-49.190071 129.19751-49.190071 178.36656 0 49.17956 49.17956 49.17956 129.19751 0 178.37707l-45.805626 45.795115a125.266509 125.266509 0 0 1-89.18328 36.955617M171.936515 762.020831a83.801802 83.801802 0 0 0-59.459024 24.584525l-45.805625 45.795115c-32.78287 32.78287-32.78287 86.135177 0 118.918046a83.560056 83.560056 0 0 0 59.459023 24.637079 83.549545 83.549545 0 0 0 59.459024-24.637079l45.805625-45.795114c32.78287-32.78287 32.78287-86.135177 0-118.918047A83.791291 83.791291 0 0 0 171.936515 762.020831" fill="#616161" p-id="2251"/><path d="M508.278878 35.994309C241.254574 35.994309 24.786731 252.462151 24.786731 519.486455s216.467843 483.492147 483.492147 483.492147 483.492147-216.467843 483.492147-483.492147V35.994309H508.278878z" fill="#519657" p-id="2252"/><path d="M508.278878 1024C230.092212 1024 3.765333 797.673122 3.765333 519.486455S230.092212 14.972911 508.278878 14.972911h483.492147a21.021398 21.021398 0 0 1 21.021397 21.021398v483.492146c0 278.186666-226.326878 504.513545-504.513544 504.513545m0-966.984294C253.268303 57.015706 45.808129 264.47588 45.808129 519.486455s207.460174 462.470749 462.470749 462.47075 462.470749-207.460174 462.470749-462.47075V57.015706H508.278878z" fill="#616161" p-id="2253"/><path d="M161.436327 856.333332C249.295258 946.777896 372.228392 1002.978602 508.278878 1002.978602c267.024304 0 483.492147-216.467843 483.492147-483.492147V35.994309S266.785061 750.974087 161.436327 856.333332" fill="#e57373" p-id="2254"/><path d="M508.278878 1024c-137.543005 0-266.078341-54.340313-361.925404-153.025264a21.021398 21.021398 0 0 1 0.220725-29.514043C250.766756 737.268136 969.751111 28.174349 977.014004 21.027073A21.021398 21.021398 0 1 1 1012.792422 35.994309v483.492146c0 278.186666-226.316368 504.513545-504.513544 504.513545M191.286711 856.249246C277.369335 937.475927 389.150617 981.957205 508.278878 981.957205c255.010575 0 462.470749-207.460174 462.470749-462.47075V86.25647C829.948305 225.144845 316.174835 731.981254 191.286711 856.249246" fill="#616161" p-id="2255"/><path d="M813.089144 477.44366H571.343071a21.021398 21.021398 0 0 1-21.021398-21.021398V214.676189a21.021398 21.021398 0 0 1 42.042796 0v220.724676h220.724675a21.021398 21.021398 0 0 1 0 42.042795M707.982156 708.679035H340.107696a21.021398 21.021398 0 0 1-21.021397-21.021398V319.783177a21.021398 21.021398 0 0 1 42.042795 0v346.853062h346.853062a21.021398 21.021398 0 0 1 0 42.042796" fill="#616161" p-id="2256"/><path d="M161.425816 866.339517L981.260326 46.505007" fill="#FFFFFF" p-id="2257"/><path d="M161.425816 887.360915a21.021398 21.021398 0 0 1-14.862128-35.883526l819.83451-819.83451a21.021398 21.021398 0 1 1 29.724256 29.724257l-819.83451 819.834509A20.916291 20.916291 0 0 1 161.425816 887.360915" fill="#616161" p-id="2258"/></svg>